<svg xmlns="http://www.w3.org/2000/svg" viewBox="0 0 1240 820" role="img" aria-labelledby="title desc">
  <title id="title">Docker-basierter Mail-Stack</title>
  <desc id="desc">Docker-basierter Mail-Stack mit Postfix, pfxhttp, Nauthilus, Dovecot, Valkey und Lua-Backend.</desc>
  <defs>
    <marker id="arrow" markerWidth="7" markerHeight="7" refX="6" refY="3.5" orient="auto-start-reverse">
      <path d="M 0 0 L 7 3.5 L 0 7 z" fill="#2d607a"/>
    </marker>
    <style>
      .bg { fill: #f6f8fb; }
      .network { fill: #eef6f8; stroke: #8da8b6; stroke-width: 2.5; rx: 30; ry: 30; }
      .box { fill: #ffffff; stroke: #2d607a; stroke-width: 3; rx: 18; ry: 18; }
      .core { fill: #163b52; stroke: #163b52; stroke-width: 3; rx: 18; ry: 18; }
      .data { fill: #fff6e8; stroke: #b36b00; stroke-width: 2.5; rx: 16; ry: 16; }
      .line { stroke: #2d607a; stroke-width: 4; fill: none; marker-end: url(#arrow); stroke-linecap: round; }
      .line-thin { stroke: #2d607a; stroke-width: 3; fill: none; marker-end: url(#arrow); stroke-linecap: round; }
      .label { font: 700 26px 'Segoe UI', 'Helvetica Neue', Arial, sans-serif; fill: #163b52; text-anchor: middle; }
      .label-light { font: 700 28px 'Segoe UI', 'Helvetica Neue', Arial, sans-serif; fill: #ffffff; text-anchor: middle; }
      .small { font: 500 19px 'Segoe UI', 'Helvetica Neue', Arial, sans-serif; fill: #163b52; text-anchor: middle; }
      .small-light { font: 500 19px 'Segoe UI', 'Helvetica Neue', Arial, sans-serif; fill: #e8f0f4; text-anchor: middle; }
      .note { font: 500 18px 'Segoe UI', 'Helvetica Neue', Arial, sans-serif; fill: #163b52; text-anchor: middle; paint-order: stroke fill; stroke: #f6f8fb; stroke-width: 8; stroke-linejoin: round; }
      .title { font: 700 28px 'Segoe UI', 'Helvetica Neue', Arial, sans-serif; fill: #163b52; }
    </style>
  </defs>

  <rect class="bg" x="0" y="0" width="1240" height="820"/>
  <text class="title" x="90" y="60">Docker-Stack mit Postfix, pfxhttp, Nauthilus und einem Dovecot</text>
  <rect class="network" x="70" y="90" width="1100" height="660"/>

  <rect class="box" x="120" y="145" width="220" height="90"/>
  <text class="label" x="230" y="200">Postfix</text>

  <rect class="box" x="120" y="345" width="220" height="96"/>
  <text class="label" x="230" y="398">pfxhttp</text>
  <text class="small" x="230" y="426">Socket Map, Policy, SASL</text>

  <rect class="box" x="120" y="575" width="220" height="104"/>
  <text class="label" x="230" y="628">Dovecot</text>
  <text class="small" x="230" y="657">IMAP und LMTP</text>

  <rect class="core" x="500" y="250" width="310" height="165"/>
  <text class="label-light" x="655" y="314">Nauthilus</text>
  <text class="small-light" x="655" y="348">Hooks, Cache, HTTP-API</text>
  <text class="small-light" x="655" y="377">Auth- und Entscheidungslogik</text>

  <rect class="data" x="915" y="180" width="190" height="92"/>
  <text class="label" x="1010" y="236">Valkey</text>
  <text class="small" x="1010" y="263">Cache und Status</text>

  <rect class="data" x="860" y="470" width="280" height="112"/>
  <text class="label" x="1000" y="524">Lua-Backend</text>
  <text class="small" x="1000" y="552">Workshop-Logik</text>
  <text class="small" x="1000" y="576">und Account-Mapping</text>

  <path class="line" d="M 230 235 L 230 336"/>
  <path class="line" d="M 340 392 C 405 392 440 372 492 344"/>
  <path class="line" d="M 500 365 C 430 410 390 505 340 605"/>
  <path class="line" d="M 340 620 C 455 620 480 472 610 424"/>
  <path class="line" d="M 810 300 L 908 232"/>
  <path class="line" d="M 810 360 C 850 395 885 440 932 486"/>
  <path class="line-thin" d="M 340 190 C 455 190 520 176 610 246"/>

  <text class="note" x="370" y="290">Submission via pfxhttp-SASL</text>
  <text class="note" x="432" y="362">Policy-Service und Maps</text>
  <text class="note" x="420" y="520">IMAP-Auth gegen Nauthilus</text>
  <text class="note" x="420" y="564">LMTP fuer testuser@example.test</text>
  <text class="note" x="470" y="166">Transport-Map: Testuser zu LMTP</text>
  <text class="note" x="474" y="192">alle anderen Empfaenger zu discard</text>
  <text class="note" x="868" y="420">Lua prueft Benutzer und Mapping</text>
</svg>
